<svg id="svg" version="1.1" xmlns="http://www.w3.org/2000/svg" xmlns:xlink="http://www.w3.org/1999/xlink" width="400" height="400" viewBox="0, 0, 400,400"><g id="svgg"><path id="path0" d="M179.403 0.276 C 177.425 0.363,175.634 0.606,175.423 0.817 C 175.212 1.028,173.827 1.200,172.344 1.200 C 170.861 1.200,169.536 1.380,169.400 1.600 C 169.264 1.820,168.173 2.000,166.976 2.000 C 165.779 2.000,164.800 2.180,164.800 2.400 C 164.800 2.620,163.810 2.800,162.600 2.800 C 161.390 2.800,160.400 2.980,160.400 3.200 C 160.400 3.420,159.590 3.600,158.600 3.600 C 157.610 3.600,156.800 3.780,156.800 4.000 C 156.800 4.220,156.091 4.400,155.224 4.400 C 154.357 4.400,153.536 4.580,153.400 4.800 C 153.264 5.020,152.454 5.200,151.600 5.200 C 150.746 5.200,149.936 5.380,149.800 5.600 C 149.664 5.820,149.023 6.000,148.376 6.000 C 147.729 6.000,147.200 6.180,147.200 6.400 C 147.200 6.620,146.570 6.800,145.800 6.800 C 145.030 6.800,144.400 6.980,144.400 7.200 C 144.400 7.420,143.860 7.600,143.200 7.600 C 142.540 7.600,142.000 7.780,142.000 8.000 C 142.000 8.220,141.368 8.400,140.595 8.400 C 139.822 8.400,138.877 8.569,138.495 8.777 C 138.113 8.984,136.720 9.462,135.400 9.839 C 134.080 10.217,132.829 10.677,132.620 10.863 C 132.411 11.048,131.837 11.200,131.344 11.200 C 130.851 11.200,130.336 11.380,130.200 11.600 C 130.064 11.820,129.513 12.000,128.976 12.000 C 128.439 12.000,128.000 12.180,128.000 12.400 C 128.000 12.620,127.728 12.800,127.395 12.800 C 127.062 12.800,126.432 12.980,125.995 13.200 C 125.558 13.420,124.842 13.780,124.405 14.000 C 123.968 14.220,123.338 14.400,123.005 14.400 C 122.672 14.400,122.400 14.580,122.400 14.800 C 122.400 15.020,122.121 15.200,121.781 15.200 C 121.440 15.200,120.416 15.560,119.506 16.000 C 118.595 16.440,117.614 16.800,117.325 16.800 C 117.036 16.800,116.800 16.980,116.800 17.200 C 116.800 17.420,116.535 17.600,116.212 17.600 C 115.889 17.600,114.983 17.960,114.200 18.400 C 113.417 18.840,112.511 19.200,112.188 19.200 C 111.865 19.200,111.599 19.335,111.597 19.500 C 111.595 19.665,111.190 19.991,110.697 20.225 C 108.316 21.351,104.585 23.433,104.467 23.700 C 104.393 23.865,103.988 24.000,103.567 24.000 C 103.145 24.000,102.800 24.180,102.800 24.400 C 102.800 24.620,102.455 24.800,102.033 24.800 C 101.612 24.800,101.207 24.935,101.133 25.100 C 101.060 25.265,100.010 25.929,98.800 26.577 C 96.779 27.657,92.351 30.359,91.400 31.092 C 91.180 31.261,90.505 31.655,89.900 31.968 C 89.295 32.280,88.800 32.685,88.800 32.868 C 88.800 33.050,88.575 33.200,88.300 33.201 C 88.025 33.201,87.170 33.741,86.400 34.400 C 85.630 35.059,84.841 35.599,84.647 35.599 C 84.453 35.600,84.003 35.916,83.647 36.303 C 83.291 36.689,82.505 37.260,81.900 37.570 C 81.295 37.881,80.800 38.285,80.800 38.468 C 80.800 38.650,80.622 38.800,80.405 38.800 C 79.984 38.800,78.893 39.626,77.368 41.100 C 76.856 41.595,76.331 42.000,76.201 42.000 C 76.072 42.000,75.584 42.356,75.117 42.792 C 74.649 43.227,73.535 44.082,72.641 44.692 C 71.746 45.301,70.279 46.520,69.381 47.400 C 68.482 48.280,67.140 49.450,66.398 50.000 C 65.655 50.550,63.754 52.326,62.172 53.948 C 58.585 57.624,57.624 58.585,53.948 62.172 C 52.326 63.754,50.550 65.655,50.000 66.398 C 49.450 67.140,48.280 68.482,47.400 69.381 C 46.520 70.279,45.301 71.746,44.692 72.641 C 44.082 73.535,43.227 74.649,42.792 75.117 C 42.356 75.584,42.000 76.072,42.000 76.201 C 42.000 76.331,41.595 76.856,41.100 77.368 C 39.626 78.893,38.800 79.984,38.800 80.405 C 38.800 80.622,38.650 80.800,38.468 80.800 C 38.285 80.800,37.881 81.295,37.570 81.900 C 37.260 82.505,36.689 83.291,36.303 83.647 C 35.916 84.003,35.600 84.453,35.599 84.647 C 35.599 84.841,35.059 85.630,34.400 86.400 C 33.741 87.170,33.201 88.025,33.201 88.300 C 33.200 88.575,33.050 88.800,32.868 88.800 C 32.685 88.800,32.280 89.295,31.968 89.900 C 31.655 90.505,31.261 91.180,31.092 91.400 C 30.359 92.351,27.657 96.779,26.577 98.800 C 25.929 100.010,25.265 101.060,25.100 101.133 C 24.935 101.207,24.800 101.612,24.800 102.033 C 24.800 102.455,24.620 102.800,24.400 102.800 C 24.180 102.800,24.000 103.145,24.000 103.567 C 24.000 103.988,23.865 104.393,23.700 104.467 C 23.433 104.585,21.351 108.316,20.225 110.697 C 19.991 111.190,19.665 111.595,19.500 111.597 C 19.335 111.599,19.200 111.865,19.200 112.188 C 19.200 112.511,18.840 113.417,18.400 114.200 C 17.960 114.983,17.600 115.889,17.600 116.212 C 17.600 116.535,17.420 116.800,17.200 116.800 C 16.980 116.800,16.800 117.036,16.800 117.325 C 16.800 117.614,16.440 118.595,16.000 119.506 C 15.560 120.416,15.200 121.440,15.200 121.781 C 15.200 122.121,15.020 122.400,14.800 122.400 C 14.580 122.400,14.400 122.672,14.400 123.005 C 14.400 123.338,14.220 123.968,14.000 124.405 C 13.780 124.842,13.420 125.558,13.200 125.995 C 12.980 126.432,12.800 127.062,12.800 127.395 C 12.800 127.728,12.620 128.000,12.400 128.000 C 12.180 128.000,12.000 128.439,12.000 128.976 C 12.000 129.513,11.820 130.064,11.600 130.200 C 11.380 130.336,11.200 130.851,11.200 131.344 C 11.200 131.837,11.048 132.411,10.863 132.620 C 10.677 132.829,10.217 134.080,9.839 135.400 C 9.462 136.720,8.984 138.113,8.777 138.495 C 8.569 138.877,8.400 139.822,8.400 140.595 C 8.400 141.368,8.220 142.000,8.000 142.000 C 7.780 142.000,7.600 142.540,7.600 143.200 C 7.600 143.860,7.420 144.400,7.200 144.400 C 6.980 144.400,6.800 145.030,6.800 145.800 C 6.800 146.570,6.620 147.200,6.400 147.200 C 6.180 147.200,6.000 147.729,6.000 148.376 C 6.000 149.023,5.820 149.664,5.600 149.800 C 5.380 149.936,5.200 150.746,5.200 151.600 C 5.200 152.454,5.020 153.264,4.800 153.400 C 4.580 153.536,4.400 154.357,4.400 155.224 C 4.400 156.091,4.220 156.800,4.000 156.800 C 3.780 156.800,3.600 157.610,3.600 158.600 C 3.600 159.590,3.420 160.400,3.200 160.400 C 2.980 160.400,2.800 161.390,2.800 162.600 C 2.800 163.810,2.620 164.800,2.400 164.800 C 2.180 164.800,2.000 165.779,2.000 166.976 C 2.000 168.173,1.820 169.264,1.600 169.400 C 1.380 169.536,1.200 170.861,1.200 172.344 C 1.200 173.967,1.001 175.239,0.700 175.540 C -0.029 176.269,-0.029 223.731,0.700 224.460 C 1.001 224.761,1.200 226.033,1.200 227.656 C 1.200 229.139,1.380 230.464,1.600 230.600 C 1.820 230.736,2.000 231.816,2.000 233.000 C 2.000 234.184,2.180 235.264,2.400 235.400 C 2.620 235.536,2.800 236.537,2.800 237.624 C 2.800 238.711,2.980 239.600,3.200 239.600 C 3.420 239.600,3.600 240.410,3.600 241.400 C 3.600 242.390,3.780 243.200,4.000 243.200 C 4.220 243.200,4.400 243.920,4.400 244.800 C 4.400 245.680,4.580 246.400,4.800 246.400 C 5.020 246.400,5.200 247.210,5.200 248.200 C 5.200 249.190,5.380 250.000,5.600 250.000 C 5.820 250.000,6.000 250.630,6.000 251.400 C 6.000 252.170,6.180 252.800,6.400 252.800 C 6.620 252.800,6.800 253.419,6.800 254.176 C 6.800 254.933,6.980 255.664,7.200 255.800 C 7.420 255.936,7.600 256.476,7.600 257.000 C 7.600 257.524,7.780 258.064,8.000 258.200 C 8.220 258.336,8.400 258.979,8.400 259.629 C 8.400 260.279,8.556 261.123,8.746 261.505 C 8.936 261.887,9.576 263.730,10.167 265.600 C 10.758 267.470,11.412 269.405,11.621 269.900 C 11.829 270.395,12.180 271.250,12.400 271.800 C 13.379 274.247,13.716 275.045,14.047 275.695 C 14.241 276.077,14.400 276.662,14.400 276.995 C 14.400 277.328,14.580 277.600,14.800 277.600 C 15.020 277.600,15.200 277.879,15.200 278.219 C 15.200 278.560,15.560 279.584,16.000 280.494 C 16.440 281.405,16.800 282.386,16.800 282.675 C 16.800 282.964,16.980 283.200,17.200 283.200 C 17.420 283.200,17.600 283.549,17.600 283.976 C 17.600 284.403,17.780 284.864,18.000 285.000 C 18.220 285.136,18.400 285.597,18.400 286.024 C 18.400 286.451,18.580 286.800,18.800 286.800 C 19.020 286.800,19.200 287.160,19.200 287.600 C 19.200 288.040,19.380 288.400,19.600 288.400 C 19.820 288.400,20.000 288.760,20.000 289.200 C 20.000 289.640,20.135 290.001,20.300 290.003 C 20.465 290.005,20.798 290.410,21.040 290.903 C 22.222 293.311,23.430 295.413,23.700 295.533 C 23.865 295.607,24.000 296.012,24.000 296.433 C 24.000 296.855,24.180 297.200,24.400 297.200 C 24.620 297.200,24.800 297.545,24.800 297.967 C 24.800 298.388,24.935 298.793,25.100 298.867 C 25.265 298.940,25.923 299.990,26.563 301.200 C 27.203 302.410,28.058 303.878,28.463 304.462 C 28.868 305.046,29.200 305.721,29.200 305.962 C 29.200 306.203,29.358 306.400,29.551 306.400 C 29.745 306.400,30.127 306.940,30.400 307.600 C 30.673 308.260,31.055 308.800,31.249 308.800 C 31.442 308.800,31.600 309.036,31.600 309.325 C 31.600 309.613,31.960 310.236,32.400 310.708 C 32.840 311.180,33.200 311.709,33.200 311.883 C 33.201 312.057,33.651 312.723,34.200 313.362 C 34.750 314.001,35.200 314.668,35.200 314.844 C 35.200 315.020,35.605 315.577,36.100 316.082 C 36.595 316.587,37.255 317.495,37.568 318.100 C 37.880 318.705,38.285 319.200,38.468 319.200 C 38.650 319.200,38.800 319.378,38.800 319.595 C 38.800 319.965,39.049 320.308,40.933 322.533 C 41.621 323.346,41.697 323.356,42.177 322.699 C 42.654 322.046,44.368 322.000,68.024 322.000 C 81.959 322.000,93.189 321.851,92.980 321.670 C 92.771 321.488,91.790 321.116,90.800 320.842 C 81.192 318.190,72.715 309.244,69.912 298.800 C 68.483 293.475,68.482 240.893,69.911 235.668 C 72.917 224.675,81.056 216.483,92.211 213.222 C 95.699 212.202,276.483 211.889,277.585 212.900 C 277.884 213.175,277.753 212.860,277.293 212.200 C 276.564 211.155,269.913 204.526,257.461 192.436 C 250.479 185.658,250.447 186.002,258.849 177.635 L 264.508 172.000 266.497 172.000 L 268.486 172.000 288.743 192.198 L 309.000 212.397 314.926 212.398 C 321.355 212.400,321.877 212.532,323.852 214.652 C 326.448 217.439,326.345 221.163,323.590 224.059 L 322.163 225.559 329.075 232.479 C 332.877 236.286,335.909 239.616,335.814 239.880 C 335.719 240.143,335.862 240.274,336.133 240.170 C 336.403 240.067,338.456 241.874,340.694 244.187 C 346.585 250.276,346.587 250.752,340.736 256.702 C 330.645 266.966,331.844 266.938,322.317 257.135 C 317.614 252.297,315.164 250.041,315.028 250.424 C 313.237 255.454,314.049 281.205,316.396 293.800 C 316.642 295.120,317.000 297.100,317.191 298.200 C 317.381 299.300,317.744 300.920,317.995 301.800 C 318.709 304.293,319.237 306.524,319.322 307.400 C 319.400 308.198,319.098 308.201,209.800 308.403 L 100.200 308.606 210.916 308.695 L 321.631 308.783 322.980 309.811 C 326.468 312.473,326.451 318.953,322.949 320.827 C 320.958 321.893,322.488 322.000,339.656 322.000 C 355.723 322.000,357.356 322.060,357.803 322.671 C 358.315 323.371,360.400 321.883,360.400 320.818 C 360.400 320.588,360.580 320.400,360.800 320.400 C 361.020 320.400,361.200 320.170,361.200 319.888 C 361.200 319.607,361.560 319.117,362.000 318.800 C 362.440 318.483,362.800 317.991,362.800 317.708 C 362.800 317.425,363.340 316.628,364.000 315.937 C 364.660 315.246,365.200 314.478,365.200 314.229 C 365.200 313.980,365.560 313.517,366.000 313.200 C 366.440 312.883,366.800 312.386,366.800 312.095 C 366.800 311.804,367.160 311.180,367.600 310.708 C 368.040 310.236,368.400 309.613,368.400 309.325 C 368.400 309.036,368.580 308.800,368.800 308.800 C 369.020 308.800,369.200 308.564,369.200 308.275 C 369.200 307.987,369.560 307.364,370.000 306.892 C 370.440 306.420,370.800 305.945,370.800 305.837 C 370.800 305.729,371.340 304.840,372.000 303.862 C 372.660 302.884,373.200 301.972,373.200 301.834 C 373.200 301.697,373.650 300.871,374.200 300.000 C 374.750 299.129,375.200 298.142,375.200 297.808 C 375.200 297.474,375.380 297.200,375.600 297.200 C 375.820 297.200,376.000 296.840,376.000 296.400 C 376.000 295.960,376.146 295.600,376.325 295.600 C 376.504 295.600,376.898 294.970,377.200 294.200 C 377.502 293.430,377.896 292.800,378.075 292.800 C 378.254 292.800,378.400 292.440,378.400 292.000 C 378.400 291.560,378.580 291.200,378.800 291.200 C 379.020 291.200,379.200 290.930,379.200 290.600 C 379.200 290.270,379.380 290.000,379.600 290.000 C 379.820 290.000,380.000 289.766,380.000 289.480 C 380.000 288.744,380.941 286.807,381.300 286.803 C 381.465 286.801,381.600 286.451,381.600 286.024 C 381.600 285.597,381.780 285.136,382.000 285.000 C 382.220 284.864,382.400 284.403,382.400 283.976 C 382.400 283.549,382.580 283.200,382.800 283.200 C 383.020 283.200,383.200 282.840,383.200 282.400 C 383.200 281.960,383.380 281.600,383.600 281.600 C 383.820 281.600,384.000 281.328,384.000 280.996 C 384.000 280.663,384.378 279.538,384.840 278.496 C 385.302 277.453,385.818 276.240,385.986 275.800 C 386.155 275.360,386.521 274.460,386.800 273.800 C 387.079 273.140,387.484 272.150,387.700 271.600 C 387.916 271.050,388.252 270.287,388.447 269.905 C 388.641 269.523,388.800 268.863,388.800 268.439 C 388.800 268.014,388.935 267.607,389.100 267.533 C 389.560 267.329,391.615 260.745,391.607 259.500 C 391.603 258.895,391.780 258.400,392.000 258.400 C 392.220 258.400,392.400 257.770,392.400 257.000 C 392.400 256.230,392.580 255.600,392.800 255.600 C 393.020 255.600,393.200 254.970,393.200 254.200 C 393.200 253.430,393.380 252.800,393.600 252.800 C 393.820 252.800,394.000 252.271,394.000 251.624 C 394.000 250.977,394.180 250.336,394.400 250.200 C 394.620 250.064,394.800 249.153,394.800 248.176 C 394.800 247.199,394.980 246.400,395.200 246.400 C 395.420 246.400,395.600 245.680,395.600 244.800 C 395.600 243.920,395.780 243.200,396.000 243.200 C 396.220 243.200,396.400 242.390,396.400 241.400 C 396.400 240.410,396.580 239.600,396.800 239.600 C 397.020 239.600,397.200 238.711,397.200 237.624 C 397.200 236.537,397.380 235.536,397.600 235.400 C 397.820 235.264,398.000 234.209,398.000 233.056 C 398.000 231.903,398.165 230.789,398.368 230.580 C 398.570 230.371,398.835 229.030,398.957 227.600 C 399.080 226.170,399.345 223.110,399.547 220.800 C 400.032 215.270,400.037 185.470,399.555 179.600 C 399.347 177.070,399.078 173.830,398.956 172.400 C 398.835 170.970,398.570 169.629,398.368 169.420 C 398.165 169.211,398.000 168.097,398.000 166.944 C 398.000 165.791,397.820 164.736,397.600 164.600 C 397.380 164.464,397.200 163.463,397.200 162.376 C 397.200 161.289,397.020 160.400,396.800 160.400 C 396.580 160.400,396.400 159.590,396.400 158.600 C 396.400 157.610,396.220 156.800,396.000 156.800 C 395.780 156.800,395.600 156.080,395.600 155.200 C 395.600 154.320,395.420 153.600,395.200 153.600 C 394.980 153.600,394.800 152.801,394.800 151.824 C 394.800 150.847,394.620 149.936,394.400 149.800 C 394.180 149.664,394.000 149.023,394.000 148.376 C 394.000 147.729,393.820 147.200,393.600 147.200 C 393.380 147.200,393.200 146.570,393.200 145.800 C 393.200 145.030,393.020 144.400,392.800 144.400 C 392.580 144.400,392.400 143.871,392.400 143.224 C 392.400 142.577,392.239 141.948,392.042 141.826 C 391.845 141.705,391.593 140.929,391.482 140.103 C 391.244 138.343,391.060 137.552,390.760 137.000 C 390.640 136.780,390.309 135.790,390.025 134.800 C 389.485 132.917,388.949 131.477,388.353 130.305 C 388.159 129.923,388.000 129.248,388.000 128.805 C 388.000 128.362,387.820 128.000,387.600 128.000 C 387.380 128.000,387.200 127.640,387.200 127.200 C 387.200 126.760,387.020 126.400,386.800 126.400 C 386.580 126.400,386.400 125.961,386.400 125.424 C 386.400 124.887,386.220 124.336,386.000 124.200 C 385.780 124.064,385.600 123.603,385.600 123.176 C 385.600 122.749,385.453 122.400,385.272 122.400 C 385.092 122.400,384.700 121.500,384.400 120.400 C 384.100 119.300,383.708 118.400,383.528 118.400 C 383.347 118.400,383.200 118.040,383.200 117.600 C 383.200 117.160,383.020 116.800,382.800 116.800 C 382.580 116.800,382.400 116.535,382.400 116.212 C 382.400 115.889,382.040 114.983,381.600 114.200 C 381.160 113.417,380.800 112.511,380.800 112.188 C 380.800 111.865,380.665 111.599,380.500 111.599 C 380.335 111.598,379.750 110.608,379.200 109.400 C 378.650 108.192,378.099 107.202,377.975 107.201 C 377.851 107.201,377.502 106.570,377.200 105.800 C 376.898 105.030,376.504 104.400,376.325 104.400 C 376.146 104.400,376.000 104.040,376.000 103.600 C 376.000 103.160,375.820 102.800,375.600 102.800 C 375.380 102.800,375.200 102.482,375.200 102.093 C 375.200 101.704,374.750 100.723,374.200 99.914 C 373.650 99.105,373.200 98.348,373.200 98.234 C 373.200 98.041,369.601 92.317,368.904 91.400 C 368.737 91.180,368.345 90.505,368.032 89.900 C 367.720 89.295,367.315 88.800,367.132 88.800 C 366.950 88.800,366.800 88.480,366.800 88.088 C 366.800 87.697,366.440 87.117,366.000 86.800 C 365.560 86.483,365.200 85.993,365.200 85.712 C 365.200 85.430,365.020 85.200,364.800 85.200 C 364.580 85.200,364.400 84.970,364.400 84.688 C 364.400 84.407,364.040 83.917,363.600 83.600 C 363.160 83.283,362.800 82.743,362.800 82.400 C 362.800 82.057,362.440 81.517,362.000 81.200 C 361.560 80.883,361.200 80.485,361.200 80.316 C 361.200 80.020,360.689 79.349,359.000 77.425 C 358.560 76.924,357.930 76.106,357.600 75.608 C 357.270 75.110,356.814 74.499,356.587 74.251 C 356.360 74.003,355.735 73.170,355.200 72.400 C 354.664 71.630,353.584 70.370,352.800 69.600 C 352.016 68.830,350.934 67.570,350.395 66.800 C 349.856 66.030,347.972 64.004,346.208 62.298 C 341.683 57.922,341.872 58.110,338.680 54.800 C 337.089 53.150,335.000 51.170,334.038 50.400 C 333.076 49.630,331.729 48.457,331.045 47.794 C 330.360 47.131,328.630 45.697,327.200 44.608 C 325.770 43.518,324.540 42.486,324.467 42.313 C 324.393 42.141,324.160 42.000,323.948 42.000 C 323.737 42.000,323.144 41.595,322.632 41.100 C 321.107 39.626,320.016 38.800,319.595 38.800 C 319.378 38.800,319.200 38.650,319.200 38.468 C 319.200 38.285,318.705 37.880,318.100 37.568 C 317.495 37.255,316.587 36.595,316.082 36.100 C 315.577 35.605,315.020 35.200,314.844 35.200 C 314.668 35.200,314.001 34.750,313.362 34.200 C 312.723 33.651,312.057 33.201,311.883 33.200 C 311.709 33.200,311.180 32.840,310.708 32.400 C 310.236 31.960,309.613 31.600,309.325 31.600 C 309.036 31.600,308.800 31.442,308.800 31.249 C 308.800 31.055,308.260 30.673,307.600 30.400 C 306.940 30.127,306.400 29.745,306.400 29.551 C 306.400 29.358,306.203 29.200,305.962 29.200 C 305.721 29.200,305.046 28.868,304.462 28.463 C 303.878 28.058,302.410 27.203,301.200 26.563 C 299.990 25.923,298.940 25.265,298.867 25.100 C 298.793 24.935,298.388 24.800,297.967 24.800 C 297.545 24.800,297.200 24.620,297.200 24.400 C 297.200 24.180,296.855 24.000,296.433 24.000 C 296.012 24.000,295.607 23.865,295.533 23.700 C 295.413 23.430,293.311 22.222,290.903 21.040 C 290.410 20.798,290.005 20.465,290.003 20.300 C 290.001 20.135,289.640 20.000,289.200 20.000 C 288.760 20.000,288.400 19.820,288.400 19.600 C 288.400 19.380,288.040 19.200,287.600 19.200 C 287.160 19.200,286.800 19.020,286.800 18.800 C 286.800 18.580,286.451 18.400,286.024 18.400 C 285.597 18.400,285.136 18.220,285.000 18.000 C 284.864 17.780,284.403 17.600,283.976 17.600 C 283.549 17.600,283.200 17.420,283.200 17.200 C 283.200 16.980,282.964 16.800,282.675 16.800 C 282.386 16.800,281.405 16.440,280.494 16.000 C 279.584 15.560,278.560 15.200,278.219 15.200 C 277.879 15.200,277.600 15.020,277.600 14.800 C 277.600 14.580,277.328 14.400,276.995 14.400 C 276.662 14.400,276.077 14.241,275.695 14.047 C 274.908 13.647,272.994 12.837,271.800 12.400 C 271.360 12.239,270.550 11.912,270.000 11.674 C 269.450 11.436,267.470 10.758,265.600 10.167 C 263.730 9.576,261.887 8.936,261.505 8.746 C 261.123 8.556,260.279 8.400,259.629 8.400 C 258.979 8.400,258.336 8.220,258.200 8.000 C 258.064 7.780,257.524 7.600,257.000 7.600 C 256.476 7.600,255.936 7.420,255.800 7.200 C 255.664 6.980,254.933 6.800,254.176 6.800 C 253.419 6.800,252.800 6.620,252.800 6.400 C 252.800 6.180,252.170 6.000,251.400 6.000 C 250.630 6.000,250.000 5.820,250.000 5.600 C 250.000 5.380,249.190 5.200,248.200 5.200 C 247.210 5.200,246.400 5.020,246.400 4.800 C 246.400 4.580,245.680 4.400,244.800 4.400 C 243.920 4.400,243.200 4.220,243.200 4.000 C 243.200 3.780,242.390 3.600,241.400 3.600 C 240.410 3.600,239.600 3.420,239.600 3.200 C 239.600 2.980,238.711 2.800,237.624 2.800 C 236.537 2.800,235.536 2.620,235.400 2.400 C 235.264 2.180,234.184 2.000,233.000 2.000 C 231.816 2.000,230.736 1.820,230.600 1.600 C 230.464 1.380,229.139 1.200,227.656 1.200 C 226.066 1.200,224.760 1.000,224.471 0.711 C 223.987 0.227,188.340 -0.117,179.403 0.276 M215.477 59.600 C 216.535 59.832,218.300 60.205,219.400 60.428 C 221.782 60.911,224.295 61.571,225.400 62.005 C 225.840 62.178,226.830 62.539,227.600 62.807 C 248.861 70.206,265.738 90.279,269.637 112.800 C 271.035 120.879,270.838 131.784,269.172 138.500 C 267.630 144.718,266.649 147.516,264.213 152.642 C 262.233 156.811,258.161 163.402,256.396 165.297 C 254.751 167.062,254.901 167.483,258.452 171.052 L 261.788 174.406 258.305 177.889 L 254.821 181.373 251.362 177.819 C 248.949 175.340,247.757 174.376,247.419 174.633 C 247.153 174.835,245.870 175.705,244.568 176.566 C 243.265 177.427,242.110 178.243,242.000 178.381 C 241.604 178.874,234.953 182.639,232.800 183.588 C 230.827 184.458,228.845 185.692,230.400 185.083 C 234.771 183.369,240.172 180.368,242.934 178.118 C 244.472 176.866,244.661 177.104,244.986 180.694 C 245.531 186.706,246.784 194.228,247.770 197.400 C 248.112 198.500,248.393 199.805,248.396 200.299 L 248.400 201.198 162.900 201.300 L 77.400 201.402 163.887 201.501 L 250.373 201.600 251.728 202.954 C 253.786 205.013,253.983 207.302,252.308 209.706 C 250.573 212.195,257.593 212.025,161.906 211.901 L 74.600 211.788 72.157 210.948 C 63.954 208.127,58.365 202.419,55.761 194.200 C 54.608 190.563,54.591 148.327,55.740 144.600 C 58.201 136.621,63.607 130.878,71.466 127.894 C 73.790 127.012,73.947 127.007,106.600 126.804 L 139.400 126.600 139.491 122.600 C 140.236 89.871,166.777 61.523,199.000 59.040 C 202.397 58.778,213.448 59.154,215.477 59.600 M208.100 72.676 C 208.485 72.776,209.115 72.776,209.500 72.676 C 209.885 72.575,209.570 72.493,208.800 72.493 C 208.030 72.493,207.715 72.575,208.100 72.676 M256.901 121.800 C 256.905 122.680,256.987 122.993,257.083 122.495 C 257.179 121.998,257.175 121.278,257.075 120.895 C 256.975 120.513,256.896 120.920,256.901 121.800 M256.909 127.200 C 256.909 128.190,256.987 128.595,257.082 128.100 C 257.178 127.605,257.178 126.795,257.082 126.300 C 256.987 125.805,256.909 126.210,256.909 127.200 M109.590 137.595 L 140.581 137.800 140.925 139.000 C 141.114 139.660,141.409 140.740,141.580 141.400 C 142.694 145.689,143.002 146.625,144.178 149.300 C 145.327 151.913,145.190 150.924,143.928 147.500 C 143.260 145.685,142.327 142.670,141.856 140.800 L 141.000 137.400 109.800 137.395 L 78.600 137.390 109.590 137.595 M146.000 153.058 C 146.000 153.687,147.554 156.724,148.024 157.015 C 148.261 157.161,147.971 156.318,147.379 155.140 C 146.187 152.768,146.000 152.485,146.000 153.058 M148.808 158.400 C 151.008 162.749,158.928 171.973,163.179 175.138 C 163.961 175.719,164.690 176.301,164.800 176.430 C 165.025 176.693,170.670 180.477,171.600 180.988 C 172.885 181.694,171.303 180.458,168.313 178.421 C 161.659 173.888,155.364 167.592,151.095 161.200 C 148.909 157.928,148.016 156.834,148.808 158.400 M172.628 181.645 C 172.967 182.194,176.391 183.742,176.663 183.470 C 176.772 183.362,176.442 183.143,175.930 182.984 C 175.419 182.825,174.522 182.359,173.938 181.948 C 172.741 181.104,172.219 180.984,172.628 181.645 M178.800 184.595 C 178.800 184.861,181.590 186.007,182.149 185.970 C 182.397 185.954,181.880 185.607,181.000 185.200 C 179.309 184.417,178.800 184.277,178.800 184.595 M228.000 185.600 C 227.467 185.945,227.467 185.988,228.000 185.988 C 228.330 185.988,228.870 185.813,229.200 185.600 C 229.733 185.255,229.733 185.212,229.200 185.212 C 228.870 185.212,228.330 185.387,228.000 185.600 M184.200 186.800 C 185.080 187.207,186.160 187.546,186.600 187.552 C 187.040 187.558,186.500 187.211,185.400 186.782 C 182.886 185.800,182.067 185.812,184.200 186.800 M223.400 187.200 L 222.600 187.544 223.400 187.566 C 223.840 187.578,224.470 187.413,224.800 187.200 C 225.595 186.686,224.596 186.686,223.400 187.200 M188.400 188.000 C 188.730 188.213,189.450 188.373,190.000 188.354 L 191.000 188.320 190.000 188.000 C 188.458 187.506,187.636 187.506,188.400 188.000 M220.200 188.000 L 219.400 188.344 220.200 188.366 C 220.640 188.378,221.270 188.213,221.600 188.000 C 222.395 187.486,221.396 187.486,220.200 188.000 M191.600 188.800 C 191.930 189.013,192.830 189.169,193.600 189.147 L 195.000 189.105 193.800 188.800 C 191.924 188.323,190.861 188.323,191.600 188.800 M216.400 188.800 L 215.000 189.095 216.600 189.141 C 217.480 189.167,218.470 189.013,218.800 188.800 C 219.524 188.332,218.623 188.332,216.400 188.800 M196.475 189.660 C 196.984 189.803,200.820 189.920,205.000 189.920 C 209.180 189.920,213.015 189.803,213.522 189.660 C 214.029 189.517,210.192 189.400,204.997 189.400 C 199.801 189.400,195.966 189.517,196.475 189.660 M289.801 225.599 C 289.636 225.865,257.519 226.000,194.231 226.000 C 131.490 226.000,98.173 226.139,96.755 226.406 C 90.497 227.584,85.357 232.462,83.246 239.228 C 82.612 241.258,82.621 293.583,83.255 295.572 C 85.460 302.485,91.276 307.651,97.457 308.186 L 99.800 308.389 97.400 307.875 C 90.541 306.409,85.724 302.088,83.769 295.647 C 82.887 292.740,82.940 242.018,83.829 238.961 C 85.804 232.165,91.278 227.452,98.144 226.635 C 99.213 226.507,143.178 226.401,195.844 226.398 C 248.510 226.396,291.600 226.311,291.600 226.211 C 291.600 225.753,290.035 225.220,289.801 225.599 M42.000 323.817 C 42.000 324.285,43.987 326.147,44.228 325.905 C 44.369 325.764,44.024 325.188,43.461 324.624 C 42.465 323.629,42.000 323.372,42.000 323.817 M356.134 324.982 C 355.437 325.712,354.597 326.825,354.268 327.455 C 353.938 328.085,353.275 329.017,352.794 329.526 C 352.313 330.036,351.990 330.524,352.077 330.610 C 352.374 330.907,354.225 328.999,355.774 326.800 C 356.626 325.590,357.476 324.540,357.662 324.467 C 358.080 324.302,358.112 323.590,357.700 323.627 C 357.535 323.643,356.830 324.252,356.134 324.982 M44.277 326.256 C 44.137 326.397,44.599 327.252,45.305 328.156 C 46.715 329.963,47.696 330.837,47.988 330.546 C 48.092 330.442,47.912 330.189,47.588 329.984 C 47.265 329.780,47.143 329.609,47.318 329.606 C 47.493 329.603,47.192 329.156,46.649 328.613 C 46.106 328.070,45.546 327.260,45.404 326.813 C 45.143 325.989,44.742 325.791,44.277 326.256 M49.451 332.883 C 50.142 334.000,54.800 338.958,54.800 338.576 C 54.800 338.363,55.941 339.508,62.400 346.202 C 64.050 347.912,66.023 349.781,66.784 350.355 C 67.545 350.930,69.074 352.259,70.181 353.309 C 71.288 354.359,72.262 355.013,72.346 354.763 C 72.429 354.512,72.317 354.193,72.096 354.054 C 70.778 353.221,66.014 348.735,58.340 341.100 C 50.300 333.101,48.635 331.562,49.451 332.883 M346.405 336.454 C 343.535 339.322,342.472 340.632,342.774 340.934 C 343.075 341.235,343.203 341.190,343.212 340.780 C 343.219 340.461,343.760 339.750,344.415 339.200 C 346.953 337.069,349.600 334.426,349.600 334.023 C 349.600 333.790,349.761 333.600,349.957 333.600 C 350.154 333.600,350.418 333.330,350.545 333.000 C 350.935 331.984,350.591 332.270,346.405 336.454 M341.260 341.442 C 340.531 342.266,341.000 342.657,341.781 341.876 C 342.121 341.536,342.400 341.154,342.400 341.029 C 342.400 340.609,341.806 340.824,341.260 341.442 M338.000 344.837 C 336.790 346.162,335.740 347.415,335.667 347.623 C 335.593 347.830,335.351 348.000,335.127 348.000 C 334.904 348.000,334.217 348.540,333.600 349.200 C 332.983 349.860,332.371 350.400,332.238 350.400 C 332.105 350.400,331.143 351.209,330.099 352.198 C 329.054 353.187,328.065 353.997,327.900 353.998 C 327.735 353.999,327.600 354.180,327.600 354.400 C 327.600 355.208,328.381 354.752,330.510 352.700 C 332.840 350.454,333.847 349.600,334.164 349.600 C 334.505 349.600,340.000 343.890,340.000 343.536 C 340.000 343.351,340.281 343.200,340.624 343.200 C 340.967 343.200,341.136 343.020,341.000 342.800 C 340.587 342.131,340.283 342.337,338.000 344.837 M74.687 356.835 C 75.395 357.563,76.092 358.042,76.235 357.899 C 76.562 357.572,75.690 356.683,74.392 356.019 C 73.515 355.571,73.549 355.665,74.687 356.835 M324.460 356.651 C 323.943 357.202,323.611 357.744,323.723 357.856 C 323.971 358.104,326.000 356.386,326.000 355.928 C 326.000 355.351,325.427 355.621,324.460 356.651 M77.200 358.254 C 77.200 358.645,79.877 361.200,80.288 361.200 C 80.431 361.200,80.946 361.574,81.432 362.030 C 82.002 362.566,82.410 362.708,82.581 362.430 C 82.728 362.194,82.606 362.000,82.312 362.000 C 82.017 362.000,81.517 361.640,81.200 361.200 C 80.883 360.760,80.459 360.400,80.259 360.400 C 80.058 360.400,79.603 360.085,79.247 359.699 C 78.227 358.594,77.200 357.869,77.200 358.254 M321.829 358.609 C 321.405 358.929,321.185 359.319,321.340 359.474 C 321.495 359.629,322.017 359.361,322.500 358.878 C 323.483 357.895,323.019 357.709,321.829 358.609 M320.400 360.000 C 320.400 360.220,320.170 360.400,319.888 360.400 C 319.607 360.400,319.117 360.760,318.800 361.200 C 318.483 361.640,317.983 362.000,317.688 362.000 C 317.394 362.000,317.272 362.194,317.419 362.430 C 317.590 362.708,317.998 362.566,318.568 362.030 C 319.054 361.574,319.665 361.200,319.926 361.200 C 320.187 361.200,320.400 361.020,320.400 360.800 C 320.400 360.580,320.681 360.400,321.024 360.400 C 321.367 360.400,321.536 360.220,321.400 360.000 C 321.264 359.780,320.983 359.600,320.776 359.600 C 320.569 359.600,320.400 359.780,320.400 360.000 M83.200 363.029 C 83.200 363.421,84.322 364.400,84.771 364.400 C 85.007 364.400,85.200 364.580,85.200 364.800 C 85.200 365.020,85.430 365.200,85.712 365.200 C 85.993 365.200,86.483 365.560,86.800 366.000 C 87.404 366.838,88.400 367.087,88.400 366.400 C 88.400 366.180,88.254 366.000,88.075 366.000 C 87.897 366.000,87.402 365.685,86.975 365.300 C 86.549 364.915,85.705 364.345,85.100 364.032 C 84.495 363.720,84.000 363.315,84.000 363.132 C 84.000 362.950,83.820 362.800,83.600 362.800 C 83.380 362.800,83.200 362.903,83.200 363.029 M316.000 363.132 C 316.000 363.315,315.505 363.720,314.900 364.032 C 314.295 364.345,313.451 364.915,313.025 365.300 C 312.598 365.685,312.103 366.000,311.925 366.000 C 311.746 366.000,311.600 366.180,311.600 366.400 C 311.600 367.087,312.596 366.838,313.200 366.000 C 313.517 365.560,313.962 365.200,314.188 365.200 C 314.657 365.199,316.800 363.438,316.800 363.053 C 316.800 362.914,316.620 362.800,316.400 362.800 C 316.180 362.800,316.000 362.950,316.000 363.132 M88.800 367.157 C 88.800 367.354,89.085 367.624,89.433 367.757 C 90.411 368.133,90.508 368.051,89.857 367.400 C 89.177 366.720,88.800 366.633,88.800 367.157 M310.100 367.398 C 309.357 368.242,309.494 368.473,310.400 367.907 C 310.840 367.632,311.200 367.271,311.200 367.104 C 311.200 366.627,310.649 366.775,310.100 367.398 M91.600 369.000 C 91.874 369.330,92.391 369.579,92.749 369.554 C 93.298 369.514,93.291 369.479,92.700 369.324 C 92.315 369.224,92.000 368.975,92.000 368.771 C 92.000 368.567,91.798 368.400,91.551 368.400 C 91.241 368.400,91.256 368.585,91.600 369.000 M306.800 369.600 C 306.800 369.820,306.530 370.000,306.200 370.000 C 305.870 370.000,305.600 370.180,305.600 370.400 C 305.600 371.041,306.218 370.864,307.000 370.000 C 307.411 369.546,307.524 369.200,307.262 369.200 C 307.008 369.200,306.800 369.380,306.800 369.600 M95.654 371.563 C 96.172 371.983,96.743 372.235,96.922 372.125 C 97.326 371.875,95.999 370.830,95.256 370.813 C 94.943 370.805,95.113 371.125,95.654 371.563 M303.476 371.374 C 303.066 371.685,302.922 372.028,303.144 372.165 C 303.359 372.298,303.799 372.144,304.120 371.823 C 304.442 371.501,304.816 371.350,304.952 371.486 C 305.089 371.622,305.200 371.523,305.200 371.267 C 305.200 370.644,304.370 370.696,303.476 371.374 M102.800 375.600 C 102.800 375.820,103.070 376.000,103.400 376.000 C 103.730 376.000,104.000 375.820,104.000 375.600 C 104.000 375.380,103.730 375.200,103.400 375.200 C 103.070 375.200,102.800 375.380,102.800 375.600 M107.200 378.000 C 107.200 378.220,107.455 378.400,107.767 378.400 C 108.078 378.400,108.414 378.625,108.512 378.900 C 108.610 379.175,108.827 379.274,108.993 379.119 C 109.341 378.795,108.268 377.600,107.629 377.600 C 107.393 377.600,107.200 377.780,107.200 378.000 M291.284 378.215 C 291.001 378.537,290.945 378.800,291.161 378.800 C 291.376 378.800,291.666 378.617,291.804 378.393 C 291.942 378.170,292.223 378.091,292.428 378.217 C 292.632 378.344,292.800 378.257,292.800 378.024 C 292.800 377.415,291.889 377.530,291.284 378.215 M111.600 380.400 C 111.600 380.620,111.870 380.800,112.200 380.800 C 112.530 380.800,112.800 380.620,112.800 380.400 C 112.800 380.180,112.530 380.000,112.200 380.000 C 111.870 380.000,111.600 380.180,111.600 380.400 M114.310 381.601 C 115.757 382.484,116.400 382.606,116.400 382.000 C 116.400 381.780,116.040 381.600,115.600 381.600 C 115.160 381.600,114.800 381.420,114.800 381.200 C 114.800 380.980,114.395 380.801,113.900 380.801 C 113.103 380.803,113.150 380.894,114.310 381.601 M149.800 394.400 C 149.936 394.620,150.307 394.800,150.624 394.800 C 150.941 394.800,151.200 394.620,151.200 394.400 C 151.200 394.180,150.829 394.000,150.376 394.000 C 149.923 394.000,149.664 394.180,149.800 394.400 M248.800 394.400 C 248.800 394.901,249.224 394.901,250.000 394.400 C 250.485 394.086,250.428 394.011,249.700 394.006 C 249.205 394.003,248.800 394.180,248.800 394.400 M156.800 396.000 C 156.800 396.220,157.070 396.400,157.400 396.400 C 157.730 396.400,158.000 396.220,158.000 396.000 C 158.000 395.780,157.730 395.600,157.400 395.600 C 157.070 395.600,156.800 395.780,156.800 396.000 M241.800 396.000 C 241.936 396.220,242.307 396.400,242.624 396.400 C 242.941 396.400,243.200 396.220,243.200 396.000 C 243.200 395.780,242.829 395.600,242.376 395.600 C 241.923 395.600,241.664 395.780,241.800 396.000 M238.400 396.800 C 238.400 397.020,238.670 397.200,239.000 397.200 C 239.330 397.200,239.600 397.020,239.600 396.800 C 239.600 396.580,239.330 396.400,239.000 396.400 C 238.670 396.400,238.400 396.580,238.400 396.800 M169.200 398.400 C 169.200 398.620,169.650 398.800,170.200 398.800 C 170.750 398.800,171.200 398.620,171.200 398.400 C 171.200 398.180,170.750 398.000,170.200 398.000 C 169.650 398.000,169.200 398.180,169.200 398.400 M228.800 398.400 C 228.800 398.620,229.149 398.800,229.576 398.800 C 230.003 398.800,230.464 398.620,230.600 398.400 C 230.740 398.173,230.404 398.000,229.824 398.000 C 229.261 398.000,228.800 398.180,228.800 398.400 " stroke="none" fill="#94dbac" fill-rule="evenodd"></path><path id="path1" d="M198.600 59.598 C 194.991 59.966,191.279 60.585,189.200 61.164 C 188.430 61.379,187.170 61.723,186.400 61.928 C 180.759 63.433,168.536 69.460,166.800 71.593 C 166.690 71.728,165.970 72.272,165.200 72.802 C 162.397 74.732,156.019 81.113,153.518 84.491 C 152.659 85.651,151.741 86.872,151.478 87.204 C 146.728 93.213,142.194 104.848,140.412 115.600 C 139.452 121.394,139.976 136.172,141.199 137.800 C 141.364 138.020,141.601 138.740,141.726 139.400 C 142.191 141.869,142.470 143.023,142.790 143.800 C 142.971 144.240,143.336 145.230,143.600 146.000 C 146.033 153.086,151.591 162.676,155.792 167.039 C 156.236 167.500,157.249 168.580,158.043 169.439 C 169.625 181.973,187.489 189.582,205.367 189.597 C 209.121 189.600,211.102 189.391,217.200 188.351 C 224.582 187.092,233.863 183.534,239.016 179.989 C 239.966 179.335,240.903 178.800,241.097 178.800 C 241.291 178.800,241.798 178.478,242.225 178.083 C 242.651 177.689,243.876 176.744,244.948 175.983 C 246.019 175.223,247.127 174.432,247.410 174.226 C 247.782 173.955,248.881 174.818,251.361 177.326 C 255.459 181.471,254.509 181.405,258.161 177.800 C 261.842 174.167,261.857 174.835,258.000 171.000 C 254.263 167.285,254.290 167.407,256.531 164.470 C 262.014 157.281,266.085 149.093,268.200 141.000 C 270.754 131.228,270.837 116.913,268.389 108.600 C 264.001 93.701,255.885 80.969,246.200 73.790 C 245.320 73.138,244.510 72.492,244.400 72.353 C 241.306 68.468,226.837 62.338,215.200 59.983 C 212.590 59.455,202.331 59.217,198.600 59.598 M215.000 72.806 C 231.512 76.347,244.488 86.251,252.072 101.101 C 253.132 103.178,254.000 105.132,254.000 105.444 C 254.000 105.756,254.159 106.323,254.353 106.705 C 255.043 108.060,255.543 109.416,255.791 110.600 C 255.930 111.260,256.219 112.610,256.434 113.600 C 256.649 114.590,257.008 117.425,257.231 119.900 C 257.639 124.440,257.283 131.296,256.434 135.200 C 256.219 136.190,255.930 137.540,255.791 138.200 C 255.653 138.860,255.391 139.760,255.210 140.200 C 255.029 140.640,254.666 141.630,254.403 142.400 C 250.418 154.091,240.362 165.405,228.800 171.207 C 223.238 173.998,221.213 174.687,214.400 176.103 C 211.551 176.696,198.449 176.696,195.600 176.103 C 191.019 175.151,189.910 174.853,187.800 174.007 C 187.360 173.830,186.019 173.302,184.821 172.832 C 177.545 169.982,168.504 163.186,164.074 157.237 C 163.486 156.447,162.905 155.710,162.783 155.600 C 161.363 154.318,157.365 146.963,155.799 142.751 C 150.446 128.352,152.279 108.443,159.951 97.669 C 160.418 97.013,160.800 96.313,160.800 96.114 C 160.800 95.914,161.120 95.402,161.511 94.975 C 161.902 94.549,162.662 93.570,163.199 92.800 C 167.992 85.937,178.849 77.804,186.600 75.270 C 187.480 74.982,188.560 74.591,189.000 74.399 C 194.369 72.064,207.725 71.246,215.000 72.806 M95.400 212.974 C 86.020 214.922,79.347 219.158,74.500 226.242 C 74.005 226.966,73.600 227.674,73.600 227.817 C 73.600 227.960,73.264 228.554,72.854 229.138 C 72.163 230.122,71.334 232.313,69.954 236.800 C 69.221 239.182,69.128 295.481,69.854 297.400 C 70.103 298.060,70.529 299.410,70.800 300.400 C 73.301 309.538,81.078 317.235,91.293 320.681 L 94.600 321.797 207.306 321.903 C 319.130 322.009,320.025 322.003,321.573 321.214 C 326.179 318.864,326.533 312.571,322.218 309.768 C 321.061 309.017,318.600 308.995,209.018 308.772 C 147.408 308.647,96.386 308.397,95.637 308.217 C 91.786 307.295,86.911 303.499,84.870 299.835 C 82.742 296.016,82.760 296.316,82.884 266.400 L 83.000 238.600 84.248 236.000 C 85.963 232.426,91.266 227.200,93.177 227.200 C 93.416 227.200,93.923 227.041,94.305 226.847 C 96.689 225.637,99.652 225.600,194.482 225.600 L 290.152 225.600 283.635 219.100 L 277.118 212.600 187.459 212.538 C 117.249 212.489,97.279 212.584,95.400 212.974 M310.112 212.696 C 309.772 212.930,311.508 214.914,315.793 219.193 L 321.962 225.352 323.281 223.952 C 326.390 220.652,325.813 215.896,322.035 213.682 C 320.159 212.583,311.336 211.853,310.112 212.696 " stroke="none" fill="#344d5d" fill-rule="evenodd"></path><path id="path2" d="M74.600 138.093 C 71.281 139.290,68.554 141.791,66.901 145.158 L 65.800 147.400 65.685 168.800 L 65.570 190.200 66.485 192.576 C 67.591 195.448,70.515 198.594,73.400 200.015 L 75.400 201.000 161.900 201.104 L 248.400 201.209 248.396 200.304 C 248.393 199.807,248.112 198.500,247.770 197.400 C 246.784 194.228,245.531 186.706,244.986 180.694 C 244.661 177.104,244.472 176.866,242.934 178.118 C 239.886 180.601,234.712 183.407,229.400 185.457 C 228.520 185.797,227.440 186.226,227.000 186.411 C 226.156 186.766,224.571 187.238,221.600 188.019 C 220.610 188.280,219.350 188.637,218.800 188.814 C 216.701 189.489,212.725 189.765,205.000 189.772 C 197.588 189.779,194.298 189.484,190.200 188.443 C 189.320 188.219,187.880 187.866,187.000 187.658 C 184.775 187.132,181.054 185.749,178.143 184.367 C 176.791 183.725,175.514 183.200,175.305 183.200 C 174.932 183.200,165.193 176.939,164.800 176.446 C 164.690 176.308,163.961 175.719,163.179 175.138 C 159.679 172.532,153.598 165.789,150.611 161.200 C 149.537 159.550,148.359 157.750,147.994 157.200 C 147.628 156.650,147.011 155.480,146.622 154.600 C 146.233 153.720,145.372 151.830,144.708 150.400 C 143.033 146.789,142.822 146.181,141.580 141.400 C 141.409 140.740,141.114 139.660,140.925 139.000 L 140.581 137.800 108.190 137.730 C 85.812 137.682,75.429 137.794,74.600 138.093 M258.849 177.635 C 250.405 186.044,250.462 185.425,257.476 192.500 C 259.602 194.645,261.465 196.400,261.615 196.400 C 261.873 196.400,272.357 186.092,275.774 182.479 L 277.349 180.814 272.879 176.407 C 268.420 172.011,268.403 172.000,266.458 172.000 L 264.508 172.000 258.849 177.635 M193.600 226.400 C 112.071 226.567,96.004 226.690,95.000 227.151 C 91.168 228.909,90.177 229.527,88.428 231.248 C 86.181 233.460,84.712 235.924,83.829 238.961 C 82.940 242.018,82.887 292.740,83.769 295.647 C 85.835 302.454,91.041 306.840,98.400 307.976 C 104.589 308.931,319.417 308.371,319.322 307.400 C 319.237 306.524,318.709 304.293,317.995 301.800 C 317.744 300.920,317.381 299.300,317.191 298.200 C 317.000 297.100,316.642 295.120,316.396 293.800 C 314.186 281.942,313.428 262.528,314.772 252.200 L 315.084 249.800 303.642 238.277 C 297.349 231.939,291.930 226.629,291.600 226.477 C 291.270 226.325,247.170 226.290,193.600 226.400 M328.369 247.558 C 324.206 251.715,320.800 255.280,320.800 255.481 C 320.800 255.682,322.753 257.771,325.140 260.123 C 331.509 266.399,331.119 266.484,340.736 256.702 C 346.585 250.753,346.584 250.275,340.702 244.196 C 338.470 241.888,336.484 240.000,336.291 240.000 C 336.097 240.000,332.532 243.401,328.369 247.558 " stroke="none" fill="#f7f8f8" fill-rule="evenodd"></path><path id="path3" d="M199.000 59.040 C 190.615 59.686,175.748 64.599,171.400 68.160 C 170.960 68.521,172.490 67.841,174.800 66.650 C 181.127 63.387,187.068 61.418,195.000 59.955 C 198.610 59.289,212.213 59.288,215.200 59.953 C 216.410 60.223,219.197 60.871,221.394 61.394 C 223.591 61.917,225.461 62.272,225.551 62.182 C 225.641 62.092,225.464 61.946,225.157 61.857 C 223.313 61.320,221.146 60.782,219.400 60.428 C 218.300 60.205,216.535 59.832,215.477 59.600 C 213.448 59.154,202.397 58.778,199.000 59.040 M229.000 63.753 C 234.287 65.932,243.290 70.959,244.400 72.353 C 244.510 72.492,245.320 73.138,246.200 73.790 C 252.317 78.324,259.407 87.301,263.671 95.911 C 264.573 97.733,265.387 99.146,265.480 99.053 C 265.574 98.960,264.806 97.202,263.774 95.148 C 256.708 81.079,244.891 70.016,230.400 63.903 C 227.389 62.633,226.745 62.401,226.281 62.417 C 226.017 62.427,227.240 63.028,229.000 63.753 M169.189 69.467 C 151.057 81.694,139.776 101.737,139.552 122.121 C 139.529 124.278,139.620 126.153,139.755 126.288 C 139.890 126.423,140.000 124.579,140.000 122.191 C 140.000 111.081,145.248 95.084,151.478 87.204 C 151.741 86.872,152.659 85.651,153.518 84.491 C 156.011 81.124,162.376 74.752,165.200 72.796 C 165.970 72.263,166.820 71.613,167.089 71.352 C 167.359 71.092,168.214 70.486,168.989 70.007 C 169.765 69.527,170.400 69.059,170.400 68.967 C 170.400 68.695,170.229 68.765,169.189 69.467 M203.200 71.901 C 198.192 72.183,189.873 73.702,189.000 74.494 C 188.577 74.878,190.231 74.600,192.000 73.990 C 199.461 71.417,214.653 72.210,223.230 75.619 C 226.943 77.095,227.200 77.185,227.200 77.009 C 227.200 76.758,223.750 75.258,221.400 74.487 C 215.942 72.695,208.326 71.613,203.200 71.901 M186.400 75.275 C 182.712 76.828,177.362 79.743,174.622 81.691 C 171.771 83.719,164.601 90.334,164.914 90.648 C 164.980 90.713,166.646 89.195,168.617 87.274 C 172.221 83.761,178.073 79.526,181.535 77.926 C 182.561 77.452,184.570 76.560,186.000 75.943 C 187.430 75.326,188.330 74.829,188.000 74.838 C 187.670 74.847,186.950 75.044,186.400 75.275 M229.200 78.232 C 233.434 80.636,234.553 81.212,233.800 80.596 C 232.542 79.567,228.408 77.199,227.879 77.205 C 227.615 77.207,228.210 77.670,229.200 78.232 M235.998 82.280 C 241.857 86.975,249.027 95.493,251.359 100.532 C 251.749 101.375,252.165 101.969,252.283 101.851 C 252.584 101.549,250.300 97.575,247.673 93.832 C 245.099 90.165,239.295 84.224,236.516 82.411 C 234.793 81.287,234.741 81.274,235.998 82.280 M163.268 92.648 C 162.755 93.440,162.522 93.972,162.749 93.831 C 163.382 93.441,164.899 91.199,164.527 91.205 C 164.347 91.208,163.781 91.857,163.268 92.648 M161.269 95.239 C 160.510 96.454,160.966 96.616,161.755 95.412 C 162.120 94.856,162.278 94.400,162.105 94.400 C 161.933 94.400,161.557 94.778,161.269 95.239 M159.538 98.300 C 158.387 100.161,156.334 104.467,156.512 104.645 C 156.585 104.718,157.555 102.982,158.670 100.789 C 160.806 96.582,161.072 95.818,159.538 98.300 M265.611 99.900 C 265.633 100.526,267.956 106.575,267.978 106.063 C 268.003 105.462,265.980 99.600,265.748 99.600 C 265.667 99.600,265.605 99.735,265.611 99.900 M154.991 108.591 C 154.379 110.473,153.987 112.120,154.120 112.253 C 154.253 112.386,154.478 111.978,154.620 111.347 C 154.763 110.716,155.238 109.152,155.676 107.870 C 156.115 106.589,156.390 105.457,156.289 105.355 C 156.187 105.254,155.603 106.710,154.991 108.591 M268.012 107.400 C 268.012 107.840,268.187 108.470,268.400 108.800 C 268.721 109.297,268.788 109.262,268.788 108.600 C 268.788 108.160,268.613 107.530,268.400 107.200 C 268.079 106.703,268.012 106.738,268.012 107.400 M254.828 108.876 C 254.896 110.144,255.542 111.054,255.572 109.924 C 255.587 109.332,255.420 108.736,255.200 108.600 C 254.980 108.464,254.813 108.588,254.828 108.876 M268.853 110.600 C 268.876 111.040,269.032 111.940,269.200 112.600 L 269.505 113.800 269.547 112.400 C 269.569 111.630,269.413 110.730,269.200 110.400 C 268.881 109.906,268.820 109.942,268.853 110.600 M255.646 111.600 C 255.665 111.930,255.824 112.650,256.000 113.200 L 256.320 114.200 256.354 113.200 C 256.373 112.650,256.213 111.930,256.000 111.600 C 255.655 111.067,255.616 111.067,255.646 111.600 M153.220 115.800 C 152.507 119.859,152.578 130.065,153.342 133.600 C 153.716 135.328,153.921 135.796,153.952 134.997 C 153.979 134.336,153.816 133.166,153.592 132.397 C 153.037 130.498,153.055 118.530,153.616 116.300 C 153.865 115.312,154.004 114.075,153.925 113.551 C 153.846 113.028,153.528 114.040,153.220 115.800 M269.877 117.200 C 270.006 118.850,270.176 120.275,270.256 120.367 C 270.566 120.725,270.323 115.753,269.994 115.000 C 269.778 114.506,269.733 115.347,269.877 117.200 M256.672 117.400 C 256.802 118.940,256.975 120.275,257.055 120.367 C 257.367 120.725,257.123 116.153,256.789 115.400 C 256.565 114.895,256.522 115.634,256.672 117.400 M257.334 124.400 C 257.334 126.050,257.405 126.725,257.491 125.900 C 257.578 125.075,257.578 123.725,257.491 122.900 C 257.405 122.075,257.334 122.750,257.334 124.400 M270.520 124.400 C 270.520 125.610,270.595 126.105,270.687 125.500 C 270.778 124.895,270.778 123.905,270.687 123.300 C 270.595 122.695,270.520 123.190,270.520 124.400 M270.074 129.644 C 270.033 130.438,269.911 131.968,269.802 133.044 C 269.618 134.857,269.634 134.903,270.021 133.668 C 270.251 132.935,270.374 131.405,270.294 130.268 C 270.190 128.790,270.127 128.612,270.074 129.644 M256.868 129.800 C 256.826 130.460,256.699 131.720,256.585 132.600 C 256.406 133.993,256.435 134.073,256.808 133.215 C 257.044 132.674,257.171 131.414,257.091 130.415 C 256.999 129.285,256.915 129.053,256.868 129.800 M256.049 135.200 C 256.016 135.530,255.889 136.250,255.767 136.800 C 255.575 137.664,255.607 137.703,255.999 137.088 C 256.248 136.697,256.375 135.977,256.281 135.488 C 256.186 135.000,256.082 134.870,256.049 135.200 M269.264 135.650 C 269.229 136.008,269.098 136.907,268.973 137.650 C 268.788 138.755,268.829 138.871,269.198 138.291 C 269.446 137.902,269.577 137.002,269.489 136.291 C 269.400 135.581,269.299 135.292,269.264 135.650 M154.268 137.800 C 154.407 138.680,154.854 140.180,155.260 141.133 C 155.667 142.086,156.005 143.076,156.010 143.333 C 156.035 144.503,161.546 154.483,162.783 155.600 C 162.905 155.710,163.517 156.487,164.143 157.327 C 168.181 162.742,181.559 172.841,184.633 172.794 C 184.835 172.791,183.290 171.869,181.200 170.744 C 174.981 167.398,173.384 166.198,167.972 160.811 C 164.797 157.650,158.800 149.689,158.800 148.635 C 158.800 148.513,158.302 147.375,157.692 146.106 C 157.083 144.838,156.163 142.450,155.648 140.800 C 154.375 136.723,153.954 135.807,154.268 137.800 M255.254 138.467 C 255.225 138.834,255.084 139.464,254.941 139.867 C 254.741 140.433,254.795 140.496,255.175 140.146 C 255.446 139.897,255.587 139.267,255.488 138.746 C 255.390 138.226,255.284 138.100,255.254 138.467 M268.229 140.629 C 268.081 141.215,268.051 141.784,268.161 141.894 C 268.271 142.004,268.481 141.615,268.629 141.029 C 268.776 140.442,268.806 139.873,268.696 139.763 C 268.586 139.653,268.376 140.042,268.229 140.629 M254.200 141.600 C 254.050 142.073,254.017 142.550,254.127 142.660 C 254.237 142.770,254.450 142.473,254.600 142.000 C 254.750 141.527,254.783 141.050,254.673 140.940 C 254.563 140.830,254.350 141.127,254.200 141.600 M267.400 143.600 C 267.250 144.073,267.217 144.550,267.327 144.660 C 267.437 144.770,267.650 144.473,267.800 144.000 C 267.950 143.527,267.983 143.050,267.873 142.940 C 267.763 142.830,267.550 143.127,267.400 143.600 M266.600 146.000 C 266.450 146.473,266.417 146.950,266.527 147.060 C 266.637 147.170,266.850 146.873,267.000 146.400 C 267.150 145.927,267.183 145.450,267.073 145.340 C 266.963 145.230,266.750 145.527,266.600 146.000 M252.000 147.034 C 252.000 147.622,248.354 153.600,246.531 156.002 C 243.004 160.648,238.261 165.007,233.100 168.347 C 230.125 170.272,229.496 170.959,231.993 169.556 C 237.049 166.714,243.286 161.004,247.541 155.323 C 249.723 152.409,252.597 147.264,252.242 146.908 C 252.109 146.775,252.000 146.832,252.000 147.034 M263.408 153.502 C 261.415 157.529,259.521 160.550,256.531 164.470 C 254.290 167.408,254.262 167.284,258.006 171.006 C 260.111 173.098,261.133 174.400,260.982 174.796 C 260.797 175.283,260.851 175.302,261.262 174.894 C 261.673 174.486,261.133 173.747,258.443 171.043 C 254.901 167.483,254.751 167.062,256.396 165.297 C 258.706 162.817,266.035 150.301,265.493 149.760 C 265.407 149.674,264.468 151.357,263.408 153.502 M156.400 168.125 C 156.400 168.194,156.985 168.779,157.700 169.425 L 159.000 170.600 157.825 169.300 C 156.730 168.088,156.400 167.816,156.400 168.125 M227.200 171.600 C 225.990 172.239,225.190 172.771,225.421 172.781 C 225.899 172.803,230.000 170.817,230.000 170.564 C 230.000 170.226,229.338 170.470,227.200 171.600 M160.400 172.200 C 161.146 172.970,161.847 173.600,161.957 173.600 C 162.067 173.600,161.546 172.970,160.800 172.200 C 160.054 171.430,159.353 170.800,159.243 170.800 C 159.133 170.800,159.654 171.430,160.400 172.200 M222.400 173.600 C 221.410 174.015,220.780 174.363,221.000 174.372 C 221.550 174.394,224.322 173.411,224.659 173.074 C 225.120 172.614,224.290 172.807,222.400 173.600 M187.728 173.884 C 187.871 174.115,188.486 174.424,189.094 174.570 C 189.702 174.716,190.920 175.019,191.800 175.243 C 192.680 175.467,194.300 175.839,195.400 176.070 C 197.934 176.601,211.109 176.956,212.276 176.524 C 212.761 176.345,210.364 176.264,206.905 176.344 C 199.731 176.510,192.960 175.571,188.226 173.755 C 187.738 173.567,187.561 173.614,187.728 173.884 M246.387 174.913 C 245.830 175.401,244.930 176.129,244.387 176.530 C 243.410 177.254,243.412 177.254,244.600 176.578 C 245.260 176.202,246.160 175.581,246.600 175.198 C 247.040 174.815,247.670 174.403,248.000 174.282 C 248.533 174.088,248.533 174.061,248.000 174.044 C 247.670 174.034,246.944 174.425,246.387 174.913 M218.000 174.870 C 217.230 175.083,215.880 175.414,215.000 175.604 L 213.400 175.951 215.000 175.808 C 217.002 175.629,219.950 174.983,220.283 174.651 C 220.622 174.311,219.694 174.400,218.000 174.870 M252.625 179.234 C 254.163 180.851,255.069 181.335,255.438 180.739 C 255.610 180.461,255.549 180.384,255.285 180.548 C 255.043 180.697,254.211 180.185,253.436 179.409 C 251.703 177.676,250.997 177.524,252.625 179.234 M195.300 189.076 C 195.685 189.176,196.315 189.176,196.700 189.076 C 197.085 188.975,196.770 188.893,196.000 188.893 C 195.230 188.893,194.915 188.975,195.300 189.076 M213.300 189.076 C 213.685 189.176,214.315 189.176,214.700 189.076 C 215.085 188.975,214.770 188.893,214.000 188.893 C 213.230 188.893,212.915 188.975,213.300 189.076 M92.000 213.254 C 83.778 215.750,75.991 221.903,72.830 228.400 C 72.005 230.098,72.001 230.143,72.768 229.200 C 73.216 228.650,73.586 228.055,73.591 227.879 C 73.623 226.744,77.964 221.655,80.740 219.501 C 85.148 216.079,89.267 214.245,95.400 212.975 C 97.572 212.526,97.648 212.478,96.200 212.471 C 95.320 212.468,93.430 212.820,92.000 213.254 M319.857 212.782 C 325.197 214.055,327.054 219.947,323.353 223.876 C 322.667 224.604,322.249 225.200,322.424 225.200 C 323.029 225.200,325.077 222.364,325.524 220.907 C 326.639 217.275,323.240 212.313,319.726 212.441 L 318.600 212.482 319.857 212.782 M97.515 225.928 C 96.896 226.174,211.744 226.152,267.400 225.896 C 279.720 225.840,246.690 225.762,194.000 225.725 C 141.310 225.687,97.892 225.779,97.515 225.928 M70.985 232.185 C 70.600 233.193,70.377 234.110,70.490 234.223 C 70.603 234.336,70.978 233.571,71.323 232.523 C 72.136 230.053,71.892 229.809,70.985 232.185 M69.829 235.829 C 69.681 236.415,69.651 236.984,69.761 237.094 C 69.871 237.204,70.081 236.815,70.229 236.229 C 70.376 235.642,70.406 235.073,70.296 234.963 C 70.186 234.853,69.976 235.242,69.829 235.829 M69.057 240.459 C 68.717 243.712,68.782 292.487,69.130 294.800 C 69.278 295.790,69.400 283.415,69.400 267.300 C 69.400 251.185,69.381 238.000,69.357 238.000 C 69.333 238.000,69.198 239.106,69.057 240.459 M69.634 297.600 C 69.646 297.930,69.811 298.560,70.000 299.000 L 70.344 299.800 70.366 299.000 C 70.378 298.560,70.213 297.930,70.000 297.600 C 69.655 297.067,69.615 297.067,69.634 297.600 M70.434 300.400 C 70.446 300.730,70.611 301.360,70.800 301.800 L 71.144 302.600 71.166 301.800 C 71.178 301.360,71.013 300.730,70.800 300.400 C 70.455 299.867,70.415 299.867,70.434 300.400 M85.514 301.000 C 85.741 301.440,86.438 302.249,87.063 302.799 L 88.200 303.797 87.003 302.399 C 85.107 300.182,85.080 300.158,85.514 301.000 M71.203 303.100 C 71.206 303.457,72.794 305.908,72.797 305.561 C 72.799 305.430,72.517 304.755,72.171 304.061 C 71.562 302.841,71.197 302.479,71.203 303.100 M73.443 307.300 C 75.375 311.088,84.819 319.715,85.876 318.658 C 85.964 318.569,85.031 317.930,83.803 317.236 C 81.033 315.673,76.130 310.901,74.416 308.100 C 72.984 305.760,72.421 305.297,73.443 307.300 M97.905 308.683 C 98.402 308.779,99.122 308.775,99.505 308.675 C 99.887 308.575,99.480 308.496,98.600 308.501 C 97.720 308.505,97.407 308.587,97.905 308.683 M320.504 308.972 C 326.340 311.054,326.986 318.452,321.573 321.214 C 319.288 322.379,95.936 322.263,92.634 321.094 C 91.553 320.712,90.579 320.488,90.470 320.597 C 90.361 320.705,90.845 320.909,91.544 321.049 C 95.417 321.823,91.020 322.000,67.866 322.000 C 44.526 322.000,42.465 322.054,42.229 322.668 C 42.088 323.035,42.182 323.465,42.438 323.623 C 42.697 323.784,42.764 324.134,42.589 324.417 C 42.385 324.748,42.438 324.824,42.741 324.636 C 43.308 324.286,44.549 325.436,44.205 325.992 C 44.066 326.217,44.213 326.293,44.543 326.166 C 44.908 326.027,45.228 326.259,45.395 326.784 C 45.542 327.247,46.087 328.051,46.607 328.570 C 47.126 329.090,47.442 329.624,47.309 329.758 C 47.176 329.891,47.277 330.000,47.533 330.000 C 47.790 330.000,48.003 330.405,48.006 330.900 C 48.011 331.628,48.086 331.685,48.400 331.200 C 48.714 330.715,48.789 330.772,48.794 331.500 C 48.797 331.995,48.991 332.400,49.224 332.400 C 49.457 332.400,49.537 332.578,49.403 332.795 C 49.257 333.031,49.438 333.084,49.849 332.926 C 50.384 332.721,50.479 332.816,50.274 333.351 C 50.108 333.783,50.166 333.945,50.428 333.783 C 50.988 333.437,55.298 337.917,54.949 338.482 C 54.797 338.728,54.858 338.812,55.085 338.671 C 55.309 338.532,55.798 338.756,56.171 339.168 C 56.703 339.756,56.736 339.968,56.324 340.155 C 56.036 340.286,56.205 340.292,56.700 340.169 C 57.531 339.963,57.986 340.518,57.300 340.901 C 57.135 340.993,57.238 341.009,57.530 340.936 C 58.254 340.753,59.318 341.885,58.964 342.459 C 58.788 342.743,58.851 342.816,59.126 342.646 C 59.388 342.484,61.143 343.918,63.331 346.084 C 67.158 349.871,71.400 353.693,72.043 353.933 C 72.239 354.007,72.400 354.245,72.400 354.462 C 72.400 354.885,73.429 356.038,73.786 356.014 C 74.506 355.966,74.764 356.075,75.553 356.759 C 76.034 357.176,76.376 357.739,76.314 358.009 C 76.251 358.279,76.425 358.583,76.700 358.683 C 76.975 358.784,77.200 358.670,77.200 358.430 C 77.200 358.135,77.458 358.154,77.997 358.491 C 78.511 358.812,78.725 359.275,78.601 359.794 C 78.494 360.237,78.511 360.375,78.637 360.100 C 79.033 359.238,79.665 359.556,79.431 360.500 C 79.308 360.995,79.311 361.175,79.437 360.900 C 79.776 360.161,80.546 360.292,81.200 361.200 C 81.517 361.640,82.007 362.000,82.288 362.000 C 82.570 362.000,82.779 362.135,82.753 362.300 C 82.602 363.256,82.823 363.784,83.155 363.260 C 83.434 362.819,83.650 362.851,84.328 363.431 C 84.785 363.822,85.069 364.289,84.959 364.467 C 84.849 364.645,85.021 364.690,85.342 364.567 C 85.868 364.365,86.716 364.876,88.216 366.300 C 88.506 366.575,88.859 366.800,89.000 366.800 C 89.463 366.800,90.368 367.899,90.114 368.152 C 89.978 368.289,90.347 368.400,90.933 368.400 C 91.520 368.400,92.000 368.580,92.000 368.800 C 92.000 369.020,92.315 369.213,92.700 369.228 C 93.299 369.252,93.284 369.306,92.600 369.600 C 91.930 369.888,92.011 369.948,93.100 369.972 C 93.927 369.990,94.400 370.201,94.400 370.554 C 94.400 370.859,94.895 371.409,95.500 371.778 L 96.600 372.447 95.656 371.624 C 95.095 371.135,94.933 370.805,95.256 370.813 C 96.060 370.832,97.234 371.828,96.894 372.203 C 96.732 372.382,96.913 372.415,97.295 372.278 C 97.785 372.102,98.163 372.348,98.579 373.115 C 98.903 373.712,99.175 374.052,99.184 373.871 C 99.193 373.691,99.489 373.832,99.842 374.185 C 100.217 374.560,100.800 374.727,101.242 374.587 C 101.663 374.453,102.000 374.536,102.000 374.773 C 102.000 375.008,102.469 375.200,103.043 375.200 C 103.795 375.200,104.023 375.363,103.860 375.787 C 103.736 376.110,103.807 376.481,104.017 376.611 C 104.228 376.741,104.400 376.657,104.400 376.424 C 104.400 376.191,104.580 376.000,104.800 376.000 C 105.020 376.000,105.200 376.259,105.200 376.576 C 105.200 376.893,105.408 377.281,105.662 377.438 C 105.948 377.615,106.015 377.548,105.838 377.262 C 105.669 376.988,105.807 376.800,106.176 376.800 C 106.519 376.800,106.800 377.064,106.800 377.387 C 106.800 377.745,107.035 377.885,107.400 377.745 C 107.761 377.606,108.460 378.008,109.160 378.757 C 109.957 379.610,110.695 380.000,111.514 380.000 C 112.370 380.000,112.766 380.226,112.916 380.800 C 113.031 381.240,113.367 381.597,113.663 381.594 C 114.071 381.589,114.056 381.494,113.600 381.200 C 113.115 380.886,113.172 380.811,113.900 380.806 C 114.395 380.803,114.800 380.980,114.800 381.200 C 114.800 381.420,115.160 381.600,115.600 381.600 C 116.040 381.600,116.400 381.780,116.400 382.000 C 116.400 382.220,116.670 382.400,117.000 382.400 C 117.330 382.400,117.600 382.580,117.600 382.800 C 117.600 383.020,117.960 383.200,118.400 383.200 C 118.840 383.200,119.200 383.380,119.200 383.600 C 119.200 383.820,119.605 384.003,120.100 384.006 C 120.663 384.010,120.821 384.126,120.523 384.315 C 120.220 384.508,120.543 384.774,121.407 385.045 C 122.155 385.279,122.674 385.320,122.560 385.135 C 122.446 384.951,122.543 384.800,122.776 384.800 C 123.009 384.800,123.200 384.980,123.200 385.200 C 123.200 385.420,123.483 385.600,123.829 385.600 C 124.174 385.600,124.719 385.862,125.040 386.183 C 125.361 386.504,125.888 386.664,126.213 386.540 C 126.547 386.412,127.161 386.722,127.631 387.257 C 128.088 387.776,128.347 387.975,128.207 387.700 C 127.830 386.958,128.319 387.093,129.292 388.000 C 129.800 388.473,130.704 388.800,131.504 388.800 C 132.248 388.800,133.111 389.054,133.422 389.364 C 133.732 389.675,134.394 389.839,134.893 389.730 C 135.543 389.587,135.648 389.639,135.263 389.912 C 134.856 390.201,134.976 390.340,135.763 390.491 C 136.333 390.600,136.800 390.540,136.800 390.357 C 136.800 390.174,137.085 390.135,137.434 390.268 C 137.884 390.441,137.931 390.595,137.597 390.802 C 137.305 390.982,137.520 391.168,138.163 391.291 C 138.733 391.400,139.200 391.338,139.200 391.153 C 139.200 390.968,139.650 391.022,140.200 391.273 C 140.750 391.523,141.203 391.925,141.206 392.164 C 141.209 392.404,141.387 392.330,141.600 392.000 C 141.858 391.600,141.990 391.567,141.994 391.900 C 141.997 392.175,142.439 392.400,142.976 392.400 C 143.513 392.400,144.064 392.580,144.200 392.800 C 144.336 393.020,144.977 393.200,145.624 393.200 C 146.271 393.200,146.800 393.380,146.800 393.600 C 146.800 393.820,146.991 394.000,147.224 394.000 C 147.457 394.000,147.536 393.820,147.400 393.600 C 147.264 393.380,147.433 393.200,147.776 393.200 C 148.119 393.200,148.400 393.380,148.400 393.600 C 148.400 393.820,149.030 394.000,149.800 394.000 C 150.570 394.000,151.200 394.180,151.200 394.400 C 151.200 394.620,151.549 394.800,151.976 394.800 C 152.403 394.800,152.864 394.980,153.000 395.200 C 153.136 395.420,154.302 395.600,155.590 395.600 C 156.879 395.600,157.996 395.788,158.072 396.017 C 158.149 396.247,158.974 396.465,159.906 396.502 C 160.838 396.540,161.600 396.712,161.600 396.885 C 161.600 397.058,162.215 397.200,162.967 397.200 C 163.718 397.200,164.394 397.381,164.467 397.602 C 164.542 397.825,166.077 398.020,167.901 398.040 C 169.715 398.059,171.200 398.238,171.200 398.438 C 171.200 398.637,171.974 398.800,172.920 398.800 C 173.866 398.800,174.865 399.025,175.140 399.300 C 175.529 399.689,181.045 399.800,200.000 399.800 C 218.955 399.800,224.471 399.689,224.860 399.300 C 225.135 399.025,226.134 398.800,227.080 398.800 C 228.026 398.800,228.800 398.620,228.800 398.400 C 228.800 398.180,229.261 398.000,229.824 398.000 C 230.526 398.000,230.759 398.157,230.565 398.500 C 230.339 398.900,230.390 398.900,230.821 398.500 C 231.118 398.225,232.314 398.000,233.480 398.000 C 234.646 398.000,235.600 397.820,235.600 397.600 C 235.600 397.380,236.230 397.200,237.000 397.200 C 237.770 397.200,238.400 397.020,238.400 396.800 C 238.400 396.224,239.496 396.306,239.735 396.900 C 239.896 397.300,239.943 397.300,239.968 396.900 C 239.986 396.625,240.461 396.400,241.024 396.400 C 241.604 396.400,241.940 396.227,241.800 396.000 C 241.645 395.749,242.521 395.600,244.153 395.600 C 245.583 395.600,246.864 395.420,247.000 395.200 C 247.136 394.980,247.597 394.800,248.024 394.800 C 248.451 394.800,248.800 394.620,248.800 394.400 C 248.800 394.180,249.430 394.000,250.200 394.000 C 250.970 394.000,251.600 393.820,251.600 393.600 C 251.600 393.380,251.881 393.200,252.224 393.200 C 252.567 393.200,252.736 393.380,252.600 393.600 C 252.464 393.820,252.543 394.000,252.776 394.000 C 253.009 394.000,253.200 393.820,253.200 393.600 C 253.200 393.380,253.560 393.200,254.000 393.200 C 254.440 393.200,254.800 393.020,254.800 392.800 C 254.800 392.580,254.991 392.400,255.224 392.400 C 255.457 392.400,255.536 392.580,255.400 392.800 C 255.264 393.020,255.343 393.200,255.576 393.200 C 255.809 393.200,256.000 393.020,256.000 392.800 C 256.000 392.580,256.440 392.400,256.977 392.400 C 257.515 392.400,258.595 392.022,259.377 391.560 C 260.160 391.099,260.800 390.894,260.800 391.105 C 260.800 391.316,261.248 391.403,261.795 391.299 C 262.343 391.194,262.700 390.962,262.589 390.782 C 262.478 390.602,262.570 390.342,262.793 390.204 C 263.017 390.066,263.200 390.127,263.200 390.339 C 263.200 390.551,263.558 390.631,263.996 390.517 C 264.433 390.403,264.683 390.135,264.552 389.922 C 264.420 389.709,264.647 389.570,265.056 389.614 C 266.804 389.798,267.822 389.602,267.200 389.200 C 266.758 388.914,267.028 388.811,268.225 388.806 C 269.290 388.802,270.145 388.525,270.708 388.000 C 271.681 387.093,272.170 386.958,271.793 387.700 C 271.653 387.975,271.912 387.776,272.369 387.257 C 272.839 386.722,273.453 386.412,273.787 386.540 C 274.112 386.664,274.639 386.504,274.960 386.183 C 275.281 385.862,275.826 385.600,276.171 385.600 C 276.517 385.600,276.800 385.409,276.800 385.175 C 276.800 384.941,277.115 384.782,277.500 384.821 C 278.882 384.962,279.643 384.793,279.400 384.400 C 279.254 384.164,279.697 383.997,280.476 383.994 C 281.478 383.989,281.654 383.893,281.200 383.600 C 280.715 383.286,280.772 383.211,281.500 383.206 C 281.995 383.203,282.400 383.020,282.400 382.800 C 282.400 382.580,282.760 382.400,283.200 382.400 C 283.640 382.400,284.000 382.220,284.000 382.000 C 284.000 381.780,284.360 381.600,284.800 381.600 C 285.240 381.600,285.600 381.420,285.600 381.200 C 285.600 380.980,285.960 380.800,286.400 380.800 C 286.840 380.800,287.200 380.620,287.200 380.400 C 287.200 380.180,287.481 380.000,287.824 380.000 C 288.191 380.000,288.343 380.205,288.193 380.500 C 288.053 380.775,288.297 380.595,288.734 380.100 C 289.185 379.589,290.019 379.186,290.664 379.168 C 291.289 379.151,291.577 379.047,291.304 378.936 C 290.923 378.782,290.939 378.604,291.375 378.168 C 292.076 377.467,292.669 377.441,292.935 378.100 C 293.046 378.375,293.151 378.195,293.168 377.700 C 293.187 377.165,293.453 376.800,293.824 376.800 C 294.193 376.800,294.331 376.988,294.162 377.262 C 293.985 377.548,294.052 377.615,294.338 377.438 C 294.592 377.281,294.800 376.893,294.800 376.576 C 294.800 376.259,294.980 376.000,295.200 376.000 C 295.420 376.000,295.600 376.210,295.600 376.467 C 295.600 376.723,295.735 376.798,295.900 376.633 C 296.065 376.468,296.200 376.123,296.200 375.867 C 296.200 375.610,296.605 375.342,297.100 375.272 C 297.595 375.202,298.000 374.966,298.000 374.749 C 298.000 374.531,298.191 374.471,298.424 374.615 C 298.657 374.759,299.390 374.653,300.051 374.379 C 300.927 374.016,301.111 373.790,300.727 373.546 C 300.383 373.328,300.686 373.199,301.600 373.175 C 302.370 373.154,302.775 373.046,302.500 372.935 C 302.225 372.824,302.000 372.574,302.000 372.379 C 302.000 372.184,302.300 372.140,302.666 372.281 C 303.068 372.435,303.232 372.375,303.079 372.128 C 302.761 371.614,304.572 370.612,305.162 370.976 C 305.408 371.128,305.600 370.974,305.600 370.624 C 305.600 370.281,305.870 370.000,306.200 370.000 C 306.530 370.000,306.800 369.820,306.800 369.600 C 306.800 369.380,306.991 369.200,307.224 369.200 C 307.457 369.200,307.536 369.380,307.400 369.600 C 307.264 369.820,307.343 370.000,307.576 370.000 C 307.809 370.000,308.000 369.640,308.000 369.200 C 308.000 368.700,308.267 368.400,308.712 368.400 C 309.103 368.400,309.683 368.040,310.000 367.600 C 310.317 367.160,310.730 366.800,310.917 366.800 C 311.104 366.800,311.494 366.575,311.784 366.300 C 312.911 365.231,314.023 364.400,314.329 364.400 C 314.505 364.400,315.062 364.015,315.567 363.545 C 316.316 362.847,316.549 362.792,316.836 363.245 C 317.179 363.786,317.401 363.275,317.247 362.300 C 317.221 362.135,317.430 362.000,317.712 362.000 C 317.993 362.000,318.483 361.640,318.800 361.200 C 319.454 360.292,320.224 360.161,320.563 360.900 C 320.689 361.175,320.684 360.968,320.550 360.439 C 320.353 359.659,320.432 359.527,320.975 359.735 C 321.390 359.894,321.543 359.832,321.381 359.569 C 321.237 359.337,321.453 358.894,321.860 358.586 C 322.758 357.905,323.350 357.834,322.968 358.452 C 322.798 358.727,322.906 358.828,323.244 358.710 C 323.550 358.604,323.741 358.196,323.670 357.804 C 323.576 357.287,323.719 357.160,324.191 357.341 C 324.573 357.488,324.740 357.426,324.595 357.192 C 324.210 356.568,325.450 355.568,326.236 355.869 C 326.727 356.057,326.841 355.990,326.625 355.641 C 326.436 355.335,326.525 355.175,326.860 355.221 C 328.101 355.391,328.637 355.211,328.030 354.827 C 327.575 354.539,327.732 354.238,328.809 353.333 C 329.552 352.710,330.565 351.795,331.061 351.300 C 331.558 350.805,332.197 350.403,332.482 350.406 C 332.856 350.411,332.833 350.530,332.400 350.837 C 331.867 351.214,331.867 351.242,332.400 351.089 C 332.730 350.994,332.941 350.596,332.870 350.204 C 332.776 349.687,332.919 349.560,333.391 349.741 C 333.773 349.888,333.940 349.826,333.795 349.592 C 333.519 349.146,334.509 348.000,335.171 348.000 C 335.407 348.000,335.603 347.865,335.607 347.700 C 335.628 346.792,339.681 343.081,340.056 343.625 C 340.344 344.043,340.378 343.937,340.180 343.239 C 339.957 342.452,340.028 342.325,340.575 342.535 C 340.970 342.687,341.141 342.628,340.995 342.392 C 340.675 341.873,341.873 340.675,342.392 340.995 C 342.628 341.141,342.687 340.970,342.535 340.575 C 342.327 340.032,342.459 339.953,343.239 340.150 C 343.768 340.284,343.964 340.286,343.676 340.155 C 342.899 339.803,344.283 338.393,345.138 338.665 C 345.663 338.832,345.685 338.794,345.247 338.482 C 344.558 337.990,348.942 333.394,349.671 333.844 C 349.931 334.004,350.014 333.946,349.866 333.707 C 349.725 333.478,349.911 333.045,350.281 332.745 C 350.852 332.282,350.903 332.284,350.615 332.762 C 350.385 333.143,350.425 333.232,350.738 333.038 C 350.992 332.881,351.203 332.268,351.206 331.676 C 351.211 330.834,351.297 330.731,351.600 331.200 C 351.930 331.710,351.989 331.692,351.994 331.083 C 351.997 330.689,352.375 329.969,352.834 329.483 C 353.293 328.997,353.941 328.078,354.275 327.441 C 355.093 325.878,356.716 324.301,357.199 324.599 C 357.430 324.742,357.482 324.559,357.326 324.151 C 357.128 323.635,357.220 323.522,357.691 323.703 C 358.674 324.080,358.811 323.611,357.967 322.767 C 357.234 322.034,356.412 322.000,339.600 322.000 C 322.486 322.000,320.959 321.892,322.949 320.827 C 327.642 318.316,325.285 308.327,320.021 308.418 C 319.151 308.433,319.223 308.515,320.504 308.972 M86.400 318.990 C 86.400 319.344,88.757 320.400,89.480 320.370 C 89.904 320.352,89.678 320.146,88.929 319.870 C 88.229 319.611,87.524 319.265,87.362 319.100 C 87.034 318.767,86.400 318.694,86.400 318.990 " stroke="none" fill="#2c9c84" fill-rule="evenodd"></path><path id="path4" d="M106.600 126.804 C 73.947 127.007,73.790 127.012,71.466 127.894 C 63.607 130.878,58.201 136.621,55.740 144.600 C 54.591 148.327,54.608 190.563,55.761 194.200 C 58.365 202.419,63.954 208.127,72.157 210.948 L 74.600 211.788 161.906 211.901 C 257.593 212.025,250.573 212.195,252.308 209.706 C 253.982 207.303,253.786 205.013,251.731 202.958 L 250.380 201.607 163.490 201.504 C 78.409 201.402,76.555 201.384,74.434 200.618 C 71.858 199.688,67.897 196.208,66.963 194.054 C 66.617 193.254,66.161 192.277,65.952 191.882 C 65.459 190.953,65.477 147.826,65.971 146.888 C 66.170 146.509,66.621 145.536,66.974 144.724 C 67.879 142.640,70.663 139.999,73.435 138.597 L 75.800 137.400 108.346 137.280 L 140.892 137.161 140.635 135.880 C 140.493 135.176,140.183 132.800,139.946 130.600 C 139.708 128.400,139.489 126.600,139.457 126.600 C 139.426 126.600,124.640 126.692,106.600 126.804 M269.717 188.571 C 265.711 192.601,262.381 196.087,262.317 196.317 C 262.202 196.726,276.289 211.343,285.800 220.684 C 288.440 223.277,297.309 232.059,305.510 240.199 C 313.710 248.340,320.482 255.051,320.557 255.114 C 320.691 255.225,334.429 241.611,335.564 240.244 C 336.107 239.589,326.728 229.797,306.474 209.872 C 304.645 208.072,297.445 200.886,290.474 193.902 C 283.503 186.917,277.620 181.212,277.400 181.223 C 277.180 181.233,273.723 184.540,269.717 188.571 " stroke="none" fill="#fb745c" fill-rule="evenodd"></path><path id="path5" d="M199.200 72.823 C 197.330 73.012,195.035 73.354,194.100 73.584 C 193.165 73.813,191.725 74.155,190.900 74.345 C 187.885 75.037,181.153 78.007,177.800 80.124 C 164.702 88.393,156.155 101.269,153.587 116.600 C 153.043 119.850,153.292 131.007,153.984 134.400 C 154.231 135.610,154.536 137.187,154.661 137.904 C 154.786 138.621,155.049 139.306,155.244 139.427 C 155.440 139.548,155.600 140.076,155.600 140.600 C 155.600 141.124,155.780 141.664,156.000 141.800 C 156.220 141.936,156.402 142.352,156.403 142.724 C 156.405 143.096,157.304 145.169,158.401 147.331 C 166.231 162.766,180.452 173.282,197.000 175.872 C 217.795 179.126,239.653 168.698,250.035 150.569 C 265.189 124.105,254.775 90.520,227.400 77.575 C 222.628 75.319,222.068 75.114,217.800 74.059 C 216.920 73.841,215.480 73.484,214.600 73.264 C 212.275 72.685,203.151 72.423,199.200 72.823 " stroke="none" fill="#83dbfb" fill-rule="evenodd"></path></g></svg>